<?xml version="1.0" encoding="UTF-8"?>
<svg id="Layer_1" data-name="Layer 1" xmlns="http://www.w3.org/2000/svg" xmlns:xlink="http://www.w3.org/1999/xlink" viewBox="0 0 500 500">
  <defs>
    <style>
      .cls-1 {
        fill: url(#White_Black-2);
      }

      .cls-1, .cls-2, .cls-3 {
        stroke-width: 0px;
      }

      .cls-2 {
        fill: url(#White_Black);
      }

      .cls-3 {
        fill: #ad70af;
      }
    </style>
    <linearGradient id="White_Black" data-name="White, Black" x1="387.68" y1="329.64" x2="390.16" y2="329.64" gradientUnits="userSpaceOnUse">
      <stop offset="0" stop-color="#fff"/>
      <stop offset="1" stop-color="#231f20"/>
    </linearGradient>
    <linearGradient id="White_Black-2" data-name="White, Black" x1="381.24" y1="332.92" x2="386.91" y2="332.92" xlink:href="#White_Black"/>
  </defs>
  <path class="cls-2" d="m387.87,330.41c.76-.53,1.54-1.05,2.29-1.61-.82.56-1.65,1.11-2.48,1.67.06-.02.13-.04.19-.06Z"/>
  <path class="cls-1" d="m381.24,334.75c1.94-1.17,3.82-2.4,5.67-3.66-.11.04-.22.09-.33.13-1.76,1.18-3.53,2.35-5.34,3.53Z"/>
  <path class="cls-3" d="m396.78,131.28c-27.42-21.71-65.39-32.57-113.9-32.57h-134.08l-41.64,197.92,106.07-43.98c-5.66-6.36-12.71-11.41-20.71-14.63l-53.57-21.57,102.44-21.49c26.31-17.08,58.58-36.05,78.28-40.51,18.49-4.19,75.61,5.93,75.61,5.93,0,0-19.76,54.55-32.62,68.48-13.71,14.83-46.26,33.32-74.2,47.58l-69.78,78.02,8.08-57.19c1.05-7.48.55-15.04-1.38-22.23l-112.97,93.65-4.34,3.59-8.41,6.97-11.96,9.91c-1.7-2.54-3.28-5.16-4.78-7.84-.18-.32-.37-.62-.54-.94-9.83-18.07-15.7-42.98-15.68-64.41-5.24,22.38-5.9,46.52-2.62,67.68.6,3.89,1.36,7.66,2.22,11.32.04.19.09.38.13.56.32,1,1.1,2.01,2.24,2.88.5.39,1.07.75,1.71,1.08,3.39,1.75,8.29,2.33,11.48,1.24.29-.03.57-.06.84-.12,0,0,.03,0,.05,0,.99-.2,1.73-.34,1.92-.38l3.27-.64c1.5-.29,2.99-.59,4.49-.88,1.86-.37,3.72-.73,5.58-1.1,2.18-.43,4.37-.86,6.55-1.28,2.46-.48,4.93-.97,7.39-1.45,2.7-.53,5.4-1.06,8.1-1.59,2.9-.57,5.79-1.14,8.69-1.7,3.05-.6,6.1-1.2,9.15-1.79,3.16-.62,6.32-1.24,9.48-1.86,3.23-.63,6.46-1.27,9.68-1.9,3.25-.64,6.51-1.28,9.76-1.91,3.24-.63,6.47-1.27,9.71-1.9,3.18-.62,6.36-1.25,9.53-1.87,3.08-.6,6.15-1.21,9.23-1.81,2.93-.58,5.86-1.15,8.8-1.73,2.75-.54,5.49-1.08,8.24-1.62l7.55-1.48,6.74-1.32,5.8-1.14c1.58-.31,3.15-.62,4.73-.93,1.18-.23,2.36-.46,3.54-.69.74-.14,1.48-.29,2.22-.43.26-.05.51-.1.77-.15l69.53-13.64,35.47-6.96c12.03-3.3,22.89-7.88,32.59-13.71,1.82-1.18,3.59-2.36,5.34-3.53.11-.04.22-.09.33-.13.32-.22.64-.45.96-.67-.06.02-.13.04-.19.06.83-.56,1.66-1.11,2.48-1.67,1.11-.82,2.2-1.67,3.27-2.53,8.11-6.49,15.22-14.08,21.3-22.78,15.47-22.13,23.2-49.62,23.2-82.45,0-38.13-13.72-68.04-41.15-89.76Z"/>
</svg>